<svg xmlns="http://www.w3.org/2000/svg" viewBox="0 0 240 240" fill="none">
  <!-- Xiva 4-Leaf Botanical X Emblem -->
  <g id="leaf-x-emblem">
    <!-- Top-Right Leaf (Signature large extended leaf) -->
    <path d="M122 102 C128 78 152 46 202 24 C190 62 176 90 128 106 Z" fill="#1ea34d" />
    <path d="M125 102 Q154 66 200 26" stroke="#ffffff" stroke-width="2.5" stroke-linecap="round" fill="none" opacity="0.95" />

    <!-- Bottom-Right Leaf (Signature large curved leaf) -->
    <path d="M122 112 C130 128 154 160 200 182 C172 180 152 162 120 116 Z" fill="#1ea34d" />
    <path d="M123 114 Q154 148 198 180" stroke="#ffffff" stroke-width="2.5" stroke-linecap="round" fill="none" opacity="0.95" />

    <!-- Top-Left Leaf -->
    <path d="M114 102 C106 82 88 54 54 46 C62 74 76 94 110 106 Z" fill="#1ea34d" />
    <path d="M112 101 Q88 76 56 48" stroke="#ffffff" stroke-width="2.2" stroke-linecap="round" fill="none" opacity="0.95" />

    <!-- Bottom-Left Leaf -->
    <path d="M114 112 C104 130 84 152 52 160 C64 144 76 124 108 108 Z" fill="#1ea34d" />
    <path d="M112 113 Q86 136 54 158" stroke="#ffffff" stroke-width="2.2" stroke-linecap="round" fill="none" opacity="0.95" />
  </g>

  <!-- Clean Bold Typography "Xiva.Org" -->
  <text x="120" y="215" text-anchor="middle" font-family="'Plus Jakarta Sans', -apple-system, BlinkMacSystemFont, 'Segoe UI', Roboto, sans-serif" font-weight="900" font-size="34" fill="#000000" letter-spacing="-0.8">Xiva.Org</text>
</svg>
